<svg xmlns="http://www.w3.org/2000/svg" width="1521.826" height="1159.738" viewBox="0 0 1521.826 1159.738">
  <g id="Page-1" transform="translate(-0.374 -0.563)">
    <g id="maintenance">
      <path id="Path_1360" data-name="Path 1360" d="M507.3,888.8c-42.5-37.1-62.8-107.7-43.7-159,13.8-37.2,45.1-56,81.5-77.5,116.1-68.6,182.2-31.9,216.6-82.3,36-52.8-28.4-104.8,8-196,25.7-64.2,67.8-63.8,73.6-113.6,8.7-74.7-82.4-106.7-71.6-166.7C782.6,33.4,890.1-19.7,956.6,8.2c60.2,25.3,34.9,95.4,99.4,153.1,91.5,81.8,210.3,1.7,299.3,82.1,49,44.3,67.6,117.9,62.5,174.3-12.2,135.6-159.4,153.5-183.3,307-11.4,73.2,16.5,105.2-15.5,158.1-43.3,71.6-138,85.3-149.4,86.8-107.1,14-128.9-59.9-260-82.8C653,859.5,576.4,949,507.3,888.8Z" fill="#80b2f2" opacity="0.3"/>
      <path id="Shape" d="M1522.2,485.3l-7.6-127.5-49.5,3a282.39,282.39,0,0,0-41.2-84.7l32.9-37.1-95.5-84.7-32.9,37.1a282.468,282.468,0,0,0-89-30.8l-3-49.5-127.5,7.6,3,49.5a282.39,282.39,0,0,0-84.7,41.2l-37.1-32.9L905.4,272l37.1,32.9a282.468,282.468,0,0,0-30.8,89l-49.5,3,7.6,127.5,49.5-3a282.39,282.39,0,0,0,41.2,84.7l-32.9,37.1,95.5,84.7,32.9-37.1a282.468,282.468,0,0,0,89,30.8l3,49.5,127.5-7.6-3-49.5a282.387,282.387,0,0,0,84.7-41.2l37.1,32.9,84.7-95.5-37.1-32.9a282.465,282.465,0,0,0,30.8-89ZM1201,589.8c-82.1,4.9-152.6-57.7-157.6-139.8s57.7-152.6,139.8-157.6,152.6,57.7,157.6,139.8S1283.1,584.8,1201,589.8Z" fill="#172859"/>
      <path id="Shape-2" data-name="Shape" d="M806.5,421.8a210.359,210.359,0,0,0,34.9-46.2l54.8,14.6,26.4-99.1-54.8-14.6A209.416,209.416,0,0,0,838,165.8l40.1-40.1L805.5,53.2,765.4,93.3A209.7,209.7,0,0,0,654.6,63.8L639.8,9,540.7,35.7l14.7,54.7a211.584,211.584,0,0,0-81,81.2L419.6,157l-26.3,99,54.8,14.6a209.416,209.416,0,0,0,29.8,110.7l-40.1,40.1,72.6,72.5,40.1-40.1a209.7,209.7,0,0,0,110.8,29.5l14.8,54.8,99.1-26.7-14.7-54.7A211.65,211.65,0,0,0,806.5,421.8ZM586.3,345.3a101.47,101.47,0,1,1,143.5-.2A101.518,101.518,0,0,1,586.3,345.3Z" fill="#4d5a7e"/>
      <line id="Line_31" data-name="Line 31" x2="778.1" transform="translate(162.5 1010.4)" fill="none" stroke="#4b2e75" stroke-linecap="round" stroke-linejoin="round" stroke-width="3"/>
      <path id="Path_1361" data-name="Path 1361" d="M475.8,539.4,655.5,661.1l-15.6,27.1L447.6,571.4Z" fill="#172859"/>
      <path id="Path_1362" data-name="Path 1362" d="M426.1,805.1,407.5,928.6l-48.1,181.6,33.7,2.4L461,936.9l38.1-129.2Z" fill="#ffdbd3"/>
      <path id="Path_1363" data-name="Path 1363" d="M447.6,824.6l51.9,123.2,24.4,192.9,34.8-19.3-5.6-195.9L515.8,786.1Z" fill="#ffdbd3"/>
      <path id="Path_1364" data-name="Path 1364" d="M417.6,781.1l-17.9,146-30.4,130,47.6,9.4,56.9-133,31.8-153.8Z" fill="#ffbb23"/>
      <path id="Path_1365" data-name="Path 1365" d="M417,786.1l70.5,164,26.1,136.5,45.1-7.7,4.1-157L522.2,768.7Z" fill="#ffbb23"/>
      <path id="Path_1366" data-name="Path 1366" d="M365.1,1086.6a6.947,6.947,0,0,0-6,5.5c-1.1,5.1-6.4,27.1-6.4,27.1s-2.8,6.4,12.8,10.8c15.5,4.5,81.7,23.1,81.7,23.1s7.4-6.3,1.4-14.3c-5.9-8-50.1-42.4-50.1-42.4s-7,3.3-18.8-.1S365.1,1086.6,365.1,1086.6Z" fill="#172859"/>
      <path id="Path_1367" data-name="Path 1367" d="M520.4,1116.3a7.426,7.426,0,0,0-4.5,7.4c.4,5.5,1.7,29.4,1.7,29.4s-.9,7.3,16.2,7.2c17.1-.2,89.9-1.1,89.9-1.1s5.6-8.6-2.8-15-63.6-28-63.6-28-6.1,5.4-19.1,5.6S520.4,1116.3,520.4,1116.3Z" fill="#172859"/>
      <path id="Path_1368" data-name="Path 1368" d="M417,786.1l70.5,164,26.1,136.5,45.1-7.7" fill="none" stroke="#ff9b24" stroke-linecap="round" stroke-linejoin="round" stroke-width="3" fill-rule="evenodd"/>
      <path id="Shape-3" data-name="Shape" d="M1246.3,566c-32.4,41.6-75,65-127.9,68.5-35.7,2.4-68.7-7.1-99.8-24.6-22.7-12.8-47.1-17-72.6-9.1-5.8,1.8-11.8,3.3-17.6,5.1Q729.65,669.65,530.9,733.5c-39.1,12.5-78.5,24.2-117.8,36-9.5,2.8-19.4,5.5-29.5,3.3-44.6-9.6-72.2-54.4-57.9-97,6.3-19,16.9-34.2,36.8-41.3,10.3-3.7,20.3-8.2,30.7-11.6q126.75-42,253.7-83.8,124.95-41.4,249.8-83.2c16.5-5.6,29.4-16.9,38.3-31.7,9.7-15.9,18-32.7,27.1-49.1,3.9-7,7.5-14.4,12.6-20.5,29.2-35.6,67.1-56.1,112.5-62.5,41-5.7,78.7,4.3,113.5,25.8,9.6,5.9,18.2,13.7,26.7,21.4,4.9,4.4,4.1,6.9-2,9.2-11.1,4.2-22.3,8.3-33.6,12.2-23.1,8.1-46.1,16.3-69.3,24.1-22.2,7.5-34.1,37-29.4,55.1,3.3,12.6,6.5,25.3,10.7,37.6a146.9,146.9,0,0,0,11.7,27c9.8,17,31.8,26.4,51,22.4,7.7-1.6,15.3-3.8,22.9-6,24.8-7.5,49.6-15.3,74.4-22.7,3.4-1,7.1-.7,10.7-1-.1,4,.8,8.4-.4,12.1-3.4,10-7.7,19.8-11.5,29.5C1257,548.1,1252.7,557.9,1246.3,566ZM380.8,728.4c16.2,8.4,36.7,2,44.9-13.9,8.8-17.1,3.3-38.2-12.9-45.5-19.3-8.7-37.3-1.1-45.6,14.6C359.1,699.6,365.4,720.4,380.8,728.4Z" fill="#ffbb23"/>
      <path id="Path_1369" data-name="Path 1369" d="M1208.4,364.4l-74.6,24.2-16.3,76.8,58.3,52.4,74.6-24.2,16.3-76.7Z" fill="#172859"/>
      <path id="Path_1370" data-name="Path 1370" d="M437.4,516.4s-22.6,25.7-24.4,56.7S409.6,791,409.6,791s104.7-.3,119.3-14.8c0,0-12.9-156.3-23.9-194.6-10.9-38.2-42.1-59.1-42.1-59.1Z" fill="#172859"/>
      <path id="Path_1371" data-name="Path 1371" d="M586,706.3s12.1,11.3,18.8,12.8,12.7,1.5,18.8-1c5.8-2.4,14.3-4,12.5-9.8-2.3-7.4-22.9-15.4-22.9-15.4s18.6,6.2,20,2.8c1.4-3.5-13-8.4-21.8-11.5s-13.4-2.4-13.4-2.4Z" fill="#ffdbd3"/>
      <path id="Path_1372" data-name="Path 1372" d="M442.1,493.1l-4.7,23.3s8.9,7.7,25.5,6.1l-4-26C458.9,496.4,452.8,486.4,442.1,493.1Z" fill="#ffddd5"/>
      <path id="Path_1373" data-name="Path 1373" d="M486.2,418.6s10.2,71.8-7.1,85-44-18.9-44-18.9-35.4-31.2-21-62.6C428.6,390.8,483.9,395.6,486.2,418.6Z" fill="#ffddd5"/>
      <path id="Path_1374" data-name="Path 1374" d="M457.2,547.6l56.5,82.6,87.4,47.3L586,708.4l-91.1-43.9-65-79.2Z" fill="#172859"/>
      <path id="Path_1375" data-name="Path 1375" d="M442.6,492.5s-53.5-11.4-44.4-63.5,89-42.9,88.2-8.5a177.194,177.194,0,0,1-31.7,5.1c-15.5.8-8.8,36.1-8.8,36.1s-1.5,1.9-2.6-1.2c-1.8-5.4-4.7-16.7-13.4-12.1-8.8,4.6.1,21.6,10.7,24.3C440.7,472.6,445.3,484.2,442.6,492.5Z" fill="#172859"/>
      <circle id="Oval" cx="22" cy="22" r="22" transform="translate(371.3 398.4)" fill="#172859"/>
      <line id="Line_32" data-name="Line 32" x1="56.5" y1="82.6" transform="translate(457.2 547.6)" fill="none" stroke="#172859" stroke-linecap="round" stroke-linejoin="round" stroke-width="3"/>
      <path id="Path_1376" data-name="Path 1376" d="M429.9,585.3l65,79.2L586,708.4" fill="none" stroke="#172859" stroke-linecap="round" stroke-linejoin="round" stroke-width="3" fill-rule="evenodd"/>
      <path id="Path_1377" data-name="Path 1377" d="M653.1,694.5s-1.7-13.2,13.7-18.8,24.9,6.9,24.9,6.9-1.2,8.3-17.3,11.9S658,699.2,653.1,694.5Z" fill="#ffdbd3"/>
      <path id="Path_1378" data-name="Path 1378" d="M437.4,516.4s7.9,7.4,25.5,6.1c0,0,14.3,9.5,27,27.7s14.9,29.7,16.2,35.6" fill="none" stroke="#172859" stroke-linecap="round" stroke-linejoin="round" stroke-width="3" fill-rule="evenodd"/>
      <line id="Path" x1="32.6" y2="153.4" transform="translate(1175.8 364.4)" fill="none"/>
      <line id="Path-2" data-name="Path" x2="116.6" y2="105" transform="translate(1133.8 388.6)" fill="none"/>
      <path id="Path_1379" data-name="Path 1379" d="M689,219.8H626.9l-31,53.7,31,53.7H689l31-53.7Z" fill="#4d5a7e"/>
      <path id="Path_1380" data-name="Path 1380" d="M42.2,885.3S-7.3,848.8,1.4,810.5c13.6-59.7,55.9-61.3,16-145.9C-14,598,49.7,609.6,47,558c-1.7-31.5-16-54-6.5-91.1,9.8-37.9,27.7-40.1,36.8-69.6,3.7-12.1-4.1-38,1.3-58.5,16.6-62.9,106.6-6.8,78.8,117.6-6.9,31.1,39.7,40.4,42.1,85.9,2.7,51.7-27.5,69.9-11.9,98.8,20.8,38.5,55.8,32.2,24.1,98.5-25.3,53,58.1,115.3-21.5,152.2S67.7,900.7,42.2,885.3Z" fill="rgba(23,40,89,0.73)"/>
      <line id="Line_33" data-name="Line 33" y2="461.2" transform="translate(118 526.2)" fill="none" stroke="#172859" stroke-linecap="round" stroke-linejoin="round" stroke-width="6"/>
      <line id="Line_34" data-name="Line 34" x1="43.5" y1="74.6" transform="translate(74.5 737.3)" fill="none" stroke="#172859" stroke-linecap="round" stroke-linejoin="round" stroke-width="6"/>
      <line id="Line_35" data-name="Line 35" y1="40.6" x2="44.5" transform="translate(118 670)" fill="none" stroke="#172859" stroke-linecap="round" stroke-linejoin="round" stroke-width="6"/>
      <line id="Line_36" data-name="Line 36" x1="28.2" y1="45.3" transform="translate(89.8 573.8)" fill="none" stroke="#172859" stroke-linecap="round" stroke-linejoin="round" stroke-width="6"/>
      <line id="Line_37" data-name="Line 37" y1="30.7" x2="37" transform="translate(118 756.8)" fill="none" stroke="#172859" stroke-linecap="round" stroke-linejoin="round" stroke-width="6"/>
      <line id="Line_38" data-name="Line 38" x1="24.2" y1="33.4" transform="translate(93.8 649.9)" fill="none" stroke="#172859" stroke-linecap="round" stroke-linejoin="round" stroke-width="6"/>
      <path id="Path_1381" data-name="Path 1381" d="M62.4,958.9a92.773,92.773,0,0,0,1.8,89.1h0a46.868,46.868,0,0,0,40.7,23.5h26.2a47.078,47.078,0,0,0,40.7-23.5h0a92.242,92.242,0,0,0,1.8-89.1Z" fill="#ffbb23"/>
    </g>
  </g>
</svg>
